# Blender 4.2.1 LTS
# www.blender.org
mtllib InformaticsSeminar.mtl
o ç­ä½“
v -0.952130 -1.000000 9.151320
v -0.752130 -0.583398 8.951320
v -0.952130 1.000000 9.151320
v -0.952130 -1.000000 3.151320
v -0.752130 -0.583398 3.351320
v -0.952130 1.000000 3.151320
v 5.047870 -1.000000 9.151320
v 4.847870 -0.583398 8.951320
v 5.047870 1.000000 9.151320
v 5.047870 -1.000000 3.151320
v 4.847870 -0.583398 3.351320
v 5.047870 1.000000 3.151320
v -0.752130 1.000000 8.951320
v 4.847870 1.000000 3.351320
v -0.752130 1.000000 3.351320
v 4.847870 1.000000 8.951320
v -0.852130 0.858952 9.051322
v -0.852130 0.958952 9.051322
v -0.852130 0.858952 3.251322
v -0.852130 0.958952 3.251322
v 4.947870 0.858952 9.051322
v 4.947870 0.958952 9.051322
v 4.947870 0.858952 3.251322
v 4.947870 0.958952 3.251322
vn -1.0000 -0.0000 -0.0000
vn -0.0000 -0.0000 -1.0000
vn 1.0000 -0.0000 -0.0000
vn -0.0000 -0.0000 1.0000
vn -0.0000 -1.0000 -0.0000
vn -0.0000 1.0000 -0.0000
vt 0.375000 0.000000
vt 0.625000 0.000000
vt 0.625000 0.250000
vt 0.375000 0.250000
vt 0.625000 0.500000
vt 0.375000 0.500000
vt 0.625000 0.750000
vt 0.375000 0.750000
vt 0.625000 1.000000
vt 0.375000 1.000000
vt 0.125000 0.500000
vt 0.125000 0.750000
vt 0.875000 0.500000
vt 0.875000 0.750000
vt 0.633333 0.741667
vt 0.866667 0.741667
vt 0.866667 0.508333
vt 0.633333 0.508333
vt 0.622406 0.000000
vt 0.622406 0.250000
vt 0.622406 0.500000
vt 0.622406 0.750000
vt 0.622406 1.000000
s 0
usemtl Material
f 1/1/1 3/2/1 6/3/1 4/4/1
f 4/4/2 6/3/2 12/5/2 10/6/2
f 10/6/3 12/5/3 9/7/3 7/8/3
f 7/8/4 9/7/4 3/9/4 1/10/4
f 4/11/5 10/6/5 7/8/5 1/12/5
f 6/13/6 3/14/6 9/7/6 16/15/6 13/16/6 15/17/6
f 9/7/6 12/5/6 6/13/6 15/17/6 14/18/6 16/15/6
f 13/19/3 2/1/3 5/4/3 15/20/3
f 15/20/4 5/4/4 11/6/4 14/21/4
f 11/6/1 8/8/1 16/22/1 14/21/1
f 8/8/2 2/10/2 13/23/2 16/22/2
f 5/11/6 2/12/6 8/8/6 11/6/6
usemtl Material.001
f 17/1/1 18/2/1 20/3/1 19/4/1
f 19/4/2 20/3/2 24/5/2 23/6/2
f 23/6/3 24/5/3 22/7/3 21/8/3
f 21/8/4 22/7/4 18/9/4 17/10/4
f 19/11/5 23/6/5 21/8/5 17/12/5
f 24/5/6 20/13/6 18/14/6 22/7/6
