# Blender 4.2.1 LTS
# www.blender.org
mtllib InformaticsSeminar.mtl
o ç­ä½“
v -1.936098 1.452885 6.819381
v -1.706998 1.899419 6.860342
v -2.144695 3.381021 7.308031
v 1.108009 3.030109 1.895381
v 1.134168 3.371495 2.264608
v 0.899411 4.958245 2.384030
v 3.196329 1.222701 9.918610
v 3.083267 1.684581 9.752954
v 2.987731 3.150837 10.407259
v 6.240435 2.799925 4.994609
v 5.924433 3.156657 5.157221
v 6.031837 4.728061 5.483259
v -1.872144 3.425922 7.247205
v 5.759287 4.683160 5.544085
v 0.969022 4.897998 2.651471
v 2.918121 3.211084 10.139818
v -1.993710 3.267491 7.243158
v -2.004140 3.363898 7.267591
v 0.948927 4.792141 2.483291
v 0.938497 4.888548 2.507724
v 2.967636 3.044980 10.239079
v 2.957206 3.141387 10.263512
v 5.910273 4.569630 5.479212
v 5.899842 4.666037 5.503644
vn -0.8554 0.0384 -0.5165
vn 0.5074 0.2629 -0.8207
vn 0.8554 -0.0384 0.5165
vn -0.5074 -0.2629 0.8207
vn 0.1043 -0.9641 -0.2443
vn -0.1043 0.9641 0.2443
vt 0.375000 0.000000
vt 0.625000 0.000000
vt 0.625000 0.250000
vt 0.375000 0.250000
vt 0.625000 0.500000
vt 0.375000 0.500000
vt 0.625000 0.750000
vt 0.375000 0.750000
vt 0.625000 1.000000
vt 0.375000 1.000000
vt 0.125000 0.500000
vt 0.125000 0.750000
vt 0.875000 0.500000
vt 0.875000 0.750000
vt 0.633333 0.741667
vt 0.866667 0.741667
vt 0.866667 0.508333
vt 0.633333 0.508333
vt 0.622406 0.000000
vt 0.622406 0.250000
vt 0.622406 0.500000
vt 0.622406 0.750000
vt 0.622406 1.000000
s 0
usemtl Material
f 1/1/1 3/2/1 6/3/1 4/4/1
f 4/4/2 6/3/2 12/5/2 10/6/2
f 10/6/3 12/5/3 9/7/3 7/8/3
f 7/8/4 9/7/4 3/9/4 1/10/4
f 4/11/5 10/6/5 7/8/5 1/12/5
f 6/13/6 3/14/6 9/7/6 16/15/6 13/16/6 15/17/6
f 9/7/6 12/5/6 6/13/6 15/17/6 14/18/6 16/15/6
f 13/19/3 2/1/3 5/4/3 15/20/3
f 15/20/4 5/4/4 11/6/4 14/21/4
f 11/6/1 8/8/1 16/22/1 14/21/1
f 8/8/2 2/10/2 13/23/2 16/22/2
f 5/11/6 2/12/6 8/8/6 11/6/6
usemtl Material.001
f 17/1/1 18/2/1 20/3/1 19/4/1
f 19/4/2 20/3/2 24/5/2 23/6/2
f 23/6/3 24/5/3 22/7/3 21/8/3
f 21/8/4 22/7/4 18/9/4 17/10/4
f 19/11/5 23/6/5 21/8/5 17/12/5
f 24/5/6 20/13/6 18/14/6 22/7/6
